<svg width="18" height="13" viewBox="0 0 18 13" fill="none" xmlns="http://www.w3.org/2000/svg">
<g filter="url(#filter0_d_59_7)">
<path fill-rule="evenodd" clip-rule="evenodd" d="M11.6397 0.445737C11.0807 0.740216 10.6482 1.17773 10.0964 2.00687L9.92327 2.2671L9.89039 1.96466C9.81615 1.28102 9.55606 0.842691 9.07149 0.584435C8.66269 0.366538 8.04927 0.306449 7.53265 0.433692C7.07389 0.546665 6.6037 0.813167 6.18837 1.19551C5.93706 1.42689 5.54574 1.88641 5.30161 2.23681C5.26764 2.28556 5.2742 2.16665 5.32404 1.82911C5.39643 1.33917 5.40352 0.941451 5.34245 0.798926C5.26167 0.610441 5.06058 0.541626 4.7822 0.607232C4.69962 0.62668 4.30337 0.748462 3.90163 0.877844C2.82653 1.22411 2.24799 1.33646 1.74211 1.29726L1.49776 1.27832L1.44659 1.35647C1.38284 1.45383 1.38186 1.67215 1.44473 1.76809C1.47744 1.81802 1.55599 1.85784 1.72669 1.91107C2.30937 2.09274 2.45741 2.48215 2.31151 3.44938C2.10535 4.81597 1.72435 6.50531 1.21521 8.31037C0.99999 9.07346 0.977756 9.19173 0.992307 9.49614C1.00238 9.70683 1.01868 9.7761 1.09433 9.92977C1.19447 10.1331 1.39517 10.3456 1.59976 10.4647C2.33459 10.8926 3.75894 10.8475 4.68245 10.367C5.04147 10.1802 5.09869 10.0264 4.88231 9.82957C4.62135 9.59223 4.53585 9.28407 4.51274 8.49765C4.47978 7.37749 4.67494 5.56246 4.94428 4.48426C5.16497 3.60091 5.49767 2.98178 5.92769 2.65429C6.28344 2.38336 6.7375 2.40363 6.91009 2.69814C7.1129 3.0442 7.06032 3.61051 6.65475 5.44766C6.27638 7.16164 6.20503 7.6168 6.23115 8.14955C6.25718 8.68039 6.36743 8.98036 6.64975 9.28846C6.86978 9.52859 7.20437 9.70098 7.61539 9.786C7.96459 9.85822 8.49793 9.84494 8.85376 9.75513C9.24593 9.65617 9.79507 9.34039 9.90117 9.15283C9.9746 9.023 9.93492 8.89905 9.79616 8.82478C9.70371 8.7753 9.57554 8.46413 9.5296 8.1777C9.3524 7.07234 9.57025 4.86982 9.96841 3.74087C10.1934 3.10314 10.5097 2.7036 10.8789 2.5909C11.1889 2.49631 11.4783 2.66093 11.5876 2.99408C11.6307 3.12523 11.6399 3.23961 11.6391 3.63232C11.6381 4.14303 11.6114 4.36473 11.4408 5.27879C11.1466 6.85492 11.0725 7.46412 11.1 8.08007C11.1344 8.84991 11.3254 9.42178 11.7097 9.90539C12.0465 10.3292 12.5484 10.6066 13.1881 10.7223C13.5277 10.7838 14.3754 10.7643 14.7079 10.6873C15.1897 10.5759 15.5498 10.4194 15.9672 10.1402C16.7814 9.59561 17.2246 8.75534 16.8596 8.44825C16.6684 8.28741 16.4889 8.32146 16.0584 8.60012C15.7706 8.78644 15.4806 8.90946 15.3292 8.90946C15.1866 8.90946 14.9662 8.81782 14.8491 8.70992C14.5634 8.44657 14.4748 7.9361 14.5661 7.08005C14.6777 6.03304 15.2199 4.11278 15.6636 3.19309C15.7028 3.11198 15.7296 3.04038 15.7232 3.03399C15.7168 3.0276 15.6985 3.04677 15.6826 3.0766C15.6454 3.14603 15.2957 3.38732 15.0619 3.50491C14.4829 3.79606 13.676 3.81937 13.0762 3.56229C12.4943 3.31285 12.0062 2.8142 11.7807 2.23887C11.5596 1.67471 11.5892 0.954032 11.855 0.430849C11.8845 0.372814 11.8989 0.325671 11.8869 0.326122C11.875 0.326572 11.7638 0.380413 11.6397 0.445737ZM10.3894 9.55193C10.2156 9.64511 10.1448 9.86495 10.2333 10.0362C10.3539 10.2694 10.7827 10.2589 10.8824 10.0202C11.025 9.67889 10.7102 9.37988 10.3894 9.55193ZM9.58238 10.3151C9.49791 10.3507 9.40259 10.4812 9.40259 10.5611C9.40259 10.6497 9.47261 10.7836 9.5305 10.8058C9.72071 10.8788 9.93734 10.7477 9.93734 10.5597C9.93734 10.3798 9.74429 10.2468 9.58238 10.3151Z" fill="#E13E53"/>
</g>
<path fill-rule="evenodd" clip-rule="evenodd" d="M12.0264 0.508416C11.8915 0.824341 11.8527 1.01592 11.8525 1.36666C11.8524 1.74921 11.917 2.01548 12.0912 2.35013C12.5367 3.20598 13.5309 3.68039 14.4871 3.49342C14.9248 3.40786 15.225 3.26213 15.4793 3.01184C15.5658 2.92676 15.6365 2.84618 15.6365 2.83275C15.6365 2.81933 15.5637 2.83827 15.4747 2.87489C15.3857 2.91147 15.2891 2.94173 15.2601 2.9421C15.2311 2.94246 15.1463 2.87975 15.0717 2.80275L14.936 2.66273L14.8152 2.70534C14.6637 2.75879 14.5256 2.76498 14.4723 2.72071C14.4497 2.70199 14.3958 2.60529 14.3524 2.50585L14.2737 2.32505L14.1082 2.32738C14.0172 2.32865 13.9326 2.31883 13.9202 2.30554C13.9079 2.29223 13.8693 2.20222 13.8346 2.10546L13.7714 1.92956L13.5993 1.92914C13.5046 1.92888 13.4132 1.9194 13.3962 1.90803C13.3273 1.86201 13.3005 1.75222 13.3005 1.51589V1.26737L13.1829 1.21642C13.1183 1.18842 13.009 1.12673 12.9402 1.07933L12.8149 0.993181L12.8342 0.755358C12.8495 0.567322 12.8447 0.504109 12.8115 0.453449L12.7696 0.389363L12.6058 0.469294C12.3754 0.581732 12.3046 0.5763 12.2096 0.438954C12.1672 0.377626 12.1262 0.327107 12.1184 0.326685C12.1107 0.326262 12.0693 0.408051 12.0264 0.508416ZM12.6021 0.938129C12.6895 1.02715 12.6806 1.21631 12.5842 1.32034C12.4819 1.43064 12.3179 1.42518 12.2194 1.30821C12.1394 1.2131 12.1284 1.12783 12.1811 1.01215C12.2472 0.867036 12.4904 0.824284 12.6021 0.938129ZM12.6712 1.80178C12.7034 1.82438 12.7453 1.88019 12.7642 1.92579C12.7977 2.0067 12.8004 2.00763 12.8752 1.96471C12.97 1.91031 13.0822 1.93386 13.1763 2.02792C13.2759 2.12756 13.2727 2.32527 13.1701 2.40596C13.0617 2.49124 12.9204 2.4826 12.8226 2.38474C12.7445 2.30667 12.7418 2.30614 12.677 2.35598C12.5718 2.43687 12.411 2.4235 12.3133 2.32575C12.2449 2.25742 12.231 2.22035 12.231 2.10684C12.231 1.94751 12.2848 1.85585 12.4105 1.80113C12.5254 1.75115 12.5991 1.75132 12.6712 1.80178ZM13.4784 2.68699C13.6099 2.81595 13.5777 3.09045 13.4266 3.12836C13.1957 3.18631 12.9663 2.92442 13.0955 2.75034C13.2063 2.60109 13.3642 2.57497 13.4784 2.68699ZM14.28 2.7851C14.5566 2.92814 14.5298 3.23252 14.2371 3.27178C14.1289 3.28628 14.1094 3.27882 14.019 3.18842C13.8906 3.06002 13.8851 2.94485 14.002 2.82802C14.0929 2.73709 14.1655 2.72589 14.28 2.7851Z" fill="#69261D"/>
<path d="M4.94428 4.50022C5.01667 4.01027 4.81043 3.6637 4.30087 3.70724C3.79132 3.75078 3.8168 5.14141 3.02699 4.1223C2.23718 3.10319 2.31151 4.91211 2.31151 3.46533C2.10535 4.83193 1.72435 6.52126 1.21521 8.32633C0.99999 9.08942 0.977756 9.20768 0.992307 9.51209C1.00238 9.72279 1.01868 9.79205 1.09433 9.94572C1.19447 10.1491 1.39517 10.3615 1.59976 10.4807C2.33459 10.9086 3.75894 10.8634 4.68245 10.383C5.04147 10.1962 5.09869 10.0423 4.88231 9.84553C4.62135 9.60818 4.53585 9.30002 4.51274 8.5136C4.47978 7.39344 4.67494 5.57842 4.94428 4.50022Z" fill="#69261D"/>
<defs>
<filter id="filter0_d_59_7" x="0.000234485" y="3.8147e-06" width="17.9771" height="12.4773" filterUnits="userSpaceOnUse" color-interpolation-filters="sRGB">
<feFlood flood-opacity="0" result="BackgroundImageFix"/>
<feColorMatrix in="SourceAlpha" type="matrix" values="0 0 0 0 0 0 0 0 0 0 0 0 0 0 0 0 0 0 127 0" result="hardAlpha"/>
<feOffset dy="0.66242"/>
<feGaussianBlur stdDeviation="0.494268"/>
<feComposite in2="hardAlpha" operator="out"/>
<feColorMatrix type="matrix" values="0 0 0 0 0 0 0 0 0 0 0 0 0 0 0 0 0 0 0.7 0"/>
<feBlend mode="normal" in2="BackgroundImageFix" result="effect1_dropShadow_59_7"/>
<feBlend mode="normal" in="SourceGraphic" in2="effect1_dropShadow_59_7" result="shape"/>
</filter>
</defs>
</svg>
