<svg width="882" height="882" viewBox="0 0 882 882" fill="none" xmlns="http://www.w3.org/2000/svg">
<g filter="url(#filter0_d_22_7)">
<path d="M577.619 525.952C576.532 528.126 574.901 530.165 572.726 532.068C570.823 533.427 568.241 534.786 564.979 536.146C561.716 537.505 557.503 538.184 552.338 538.184C541.464 538.184 531.134 536.282 521.348 532.476C511.562 528.398 503.95 522.282 498.513 514.126C496.61 516.573 493.892 519.427 490.358 522.689C487.096 525.68 483.018 528.534 478.125 531.253C473.232 533.699 467.387 535.874 460.591 537.777C454.067 539.408 446.456 540.223 437.757 540.223C427.427 540.223 418.456 538.864 410.844 536.146C403.233 533.155 396.844 529.35 391.679 524.728C386.786 519.835 383.116 514.262 380.67 508.01C378.223 501.758 377 495.098 377 488.03C377 476.884 379.718 467.913 385.155 461.117C390.864 454.049 397.932 448.477 406.359 444.399C414.786 440.05 423.893 436.788 433.679 434.613C443.465 432.166 452.572 430.127 460.999 428.496C469.698 426.865 476.902 425.098 482.61 423.195C488.319 421.293 491.173 418.71 491.173 415.448V414.632C491.173 409.467 490.766 404.438 489.95 399.545C489.407 394.652 488.183 390.303 486.28 386.497C484.649 382.419 482.339 379.157 479.348 376.711C476.63 374.264 472.96 373.041 468.339 373.041C463.446 373.041 459.776 374.4 457.329 377.118C454.883 379.565 452.98 382.691 451.621 386.497C450.261 390.031 449.038 394.108 447.951 398.73C447.135 403.079 445.912 407.157 444.281 410.963C442.922 414.497 440.747 417.623 437.757 420.341C435.038 422.788 430.961 424.011 425.524 424.011C419.815 424.011 414.65 422.516 410.029 419.526C405.407 416.263 402.009 412.322 399.835 407.7C397.66 402.807 397.116 397.642 398.204 392.206C399.563 386.769 402.961 381.74 408.398 377.118C413.835 372.225 421.854 368.283 432.456 365.293C443.329 362.031 457.193 360.4 474.047 360.4C486.552 360.4 497.698 362.031 507.484 365.293C517.27 368.283 525.426 372.497 531.95 377.934C538.746 383.099 543.775 389.079 547.037 395.875C550.571 402.4 552.338 409.196 552.338 416.263V501.486C552.338 509.641 553.153 515.35 554.784 518.612C556.416 521.602 558.726 523.097 561.716 523.097C564.435 523.097 566.881 522.282 569.056 520.651C570.144 520.107 570.959 519.427 571.503 518.612L577.619 525.952ZM491.173 437.467C487.64 442.36 482.475 446.302 475.679 449.292C466.98 452.826 460.048 458.263 454.883 465.603C449.718 472.942 446.456 480.282 445.096 487.622C443.737 494.69 444.417 500.942 447.135 506.379C449.854 511.816 454.611 514.534 461.407 514.534C466.3 514.534 470.514 513.175 474.047 510.457C477.853 507.738 480.979 504.612 483.426 501.078C486.144 497.272 488.591 492.923 490.766 488.03L491.173 437.467ZM635.19 364.07C640.083 363.254 644.297 362.847 647.831 362.847C655.17 362.847 659.928 364.885 662.102 368.963C664.549 373.041 665.772 379.973 665.772 389.759V401.176C666.86 390.031 669.306 377.254 673.112 362.847C677.19 348.167 683.034 334.167 690.646 320.847C698.529 307.527 708.451 296.381 720.412 287.411C732.374 278.168 747.053 273.547 764.451 273.547C777.499 273.547 787.693 276.809 795.033 283.333C802.645 289.585 806.45 299.236 806.45 312.284C806.45 317.177 805.499 321.799 803.596 326.148C801.693 330.226 799.111 333.895 795.849 337.158C792.858 340.148 789.188 342.594 784.839 344.497C780.489 346.4 775.868 347.352 770.975 347.352C763.635 347.352 756.975 345.313 750.995 341.235C745.014 336.886 740.665 331.313 737.946 324.517C737.403 322.886 736.587 321.391 735.5 320.032C733.597 317.041 731.014 315.546 727.752 315.546C721.772 315.546 715.383 320.303 708.587 329.818C702.063 339.332 695.811 351.293 689.83 365.701C683.85 379.837 678.685 395.196 674.335 411.778C669.986 428.36 667.132 443.855 665.772 458.263V500.263C666.044 506.515 666.86 511.544 668.219 515.35C669.85 519.156 671.617 522.146 673.52 524.321C675.966 526.767 678.549 528.534 681.267 529.621V537.777H587.89V529.621C590.88 528.534 593.462 526.767 595.637 524.321C597.812 522.146 599.579 519.156 600.938 515.35C602.569 511.544 603.385 506.515 603.385 500.263V395.06C603.385 387.992 601.21 382.691 596.86 379.157C592.783 375.623 588.433 373.856 583.812 373.856V366.924C592.511 366.924 601.074 366.788 609.501 366.516C617.928 366.245 626.491 365.429 635.19 364.07ZM811.751 351.837L815.829 359.584C813.11 360.944 810.8 362.983 808.897 365.701C807.266 367.876 805.635 370.866 804.004 374.672C802.645 378.477 801.965 383.507 801.965 389.759V500.263C801.965 506.515 802.78 511.544 804.412 515.35C806.314 519.156 808.217 522.146 810.12 524.321C812.023 526.495 813.654 527.99 815.013 528.806C816.644 529.35 817.46 529.621 817.46 529.621V537.777H724.49V529.621C727.48 528.534 730.063 526.767 732.238 524.321C734.412 522.146 736.179 519.156 737.538 515.35C739.17 511.544 739.985 506.515 739.985 500.263V395.06C739.985 387.992 737.81 382.691 733.461 379.157C729.383 375.623 725.034 373.856 720.412 373.856V366.924C735.636 366.924 751.131 366.245 766.897 364.885C782.936 363.526 797.887 359.177 811.751 351.837Z" fill="#E13E53"/>
</g>
<path d="M63.4 296.605C63.4 291.505 64.4 290.005 68 290.005H74.9C87.8 290.005 93.3 297.305 93.3 307.005C93.3 318.405 84.8 324.205 73.8 324.205C65.8 324.205 64 322.105 64 318.305C64 311.305 63.4 304.305 63.4 296.605ZM67.3 295.905V300.005C67.3 305.305 68 310.905 68 316.805C68 319.005 69 320.205 73.8 320.205C84 320.205 89.3 315.305 89.3 307.205C89.3 298.505 84.4 294.005 74.9 294.005H69.5C68.7 294.005 67.3 294.405 67.3 295.905ZM116.412 289.705C126.012 289.705 134.212 298.005 134.212 307.005C134.212 318.305 123.612 324.205 116.312 324.205C109.112 324.205 98.6117 318.905 98.6117 307.005C98.6117 298.005 106.812 289.705 116.412 289.705ZM116.412 293.705C109.512 293.705 102.712 300.205 102.712 307.005C102.712 316.405 111.012 320.205 116.512 320.205C121.912 320.205 130.112 316.105 130.112 307.005C130.112 300.005 123.212 293.705 116.412 293.705ZM157.232 324.205C149.532 324.205 139.432 319.705 139.432 307.605C139.432 296.805 149.032 289.705 157.232 289.705C164.732 289.705 169.032 292.005 169.032 293.905C169.032 295.105 168.432 295.705 167.232 295.705C165.132 295.705 165.332 293.705 157.232 293.705C151.332 293.705 143.432 299.305 143.432 307.605C143.432 316.605 151.332 320.205 157.232 320.205C165.332 320.205 165.132 318.205 167.232 318.205C168.432 318.205 169.032 318.805 169.032 320.005C169.032 321.905 164.732 324.205 157.232 324.205ZM195.1 289.805C196.5 289.805 197.6 290.605 197.6 291.705C197.6 293.205 196.2 293.805 195.3 293.805C195.3 293.805 183.6 293.905 182.3 293.905C181.1 293.905 180.1 294.305 180.1 295.505C180.1 297.905 180.3 302.005 180.4 306.005H184.5C188.2 306.005 192.6 305.805 192.6 305.805C194.3 305.805 194.9 306.805 194.9 307.705C194.9 308.505 194.5 309.705 191.7 309.705C190.2 309.705 187.8 309.805 184.5 309.805C183.4 309.805 182 309.805 180.5 309.705V311.405C180.5 313.405 180.4 315.605 180.4 316.405C180.4 318.205 180.3 319.705 184.2 319.705C188.6 319.705 196.7 319.605 196.7 319.605C197.6 319.605 199 320.505 199 321.705C199 323.105 198.1 323.705 196.8 323.705H182.7C176.3 323.705 176.4 320.705 176.4 317.905V311.405C176.4 305.605 176.1 297.805 176.1 294.005C176.1 290.905 178.3 289.905 180.8 289.905C182.2 289.905 194.8 289.805 195.1 289.805ZM223.592 291.605C224.592 292.105 225.292 292.705 225.292 293.705C225.292 295.105 224.492 295.505 223.892 295.505C223.092 295.505 222.192 295.105 221.392 294.805C219.792 294.205 218.292 293.805 215.692 293.805C211.792 293.805 207.792 295.205 207.792 298.905C207.792 302.005 211.992 303.305 216.292 305.305C221.692 307.805 227.392 310.105 227.392 315.605C227.392 323.905 219.492 324.205 215.292 324.205C212.492 324.205 208.692 323.005 206.492 322.005C205.392 321.505 204.292 320.605 204.292 319.505C204.292 318.105 204.992 317.605 205.792 317.605C206.592 317.605 207.192 318.005 208.192 318.505C209.992 319.405 212.492 320.205 215.292 320.205C218.092 320.205 223.392 319.905 223.392 315.605C223.392 312.605 218.992 310.705 214.692 308.905C209.192 306.705 203.792 304.905 203.792 298.905C203.792 293.005 210.492 289.805 215.692 289.805C218.692 289.805 221.692 290.605 223.592 291.605ZM249.045 296.605C249.045 291.505 250.045 290.005 253.645 290.005H260.545C273.445 290.005 278.945 297.305 278.945 307.005C278.945 318.405 270.445 324.205 259.445 324.205C251.445 324.205 249.645 322.105 249.645 318.305C249.645 311.305 249.045 304.305 249.045 296.605ZM252.945 295.905V300.005C252.945 305.305 253.645 310.905 253.645 316.805C253.645 319.005 254.645 320.205 259.445 320.205C269.645 320.205 274.945 315.305 274.945 307.205C274.945 298.505 270.045 294.005 260.545 294.005H255.145C254.345 294.005 252.945 294.405 252.945 295.905ZM286.156 305.105C286.156 298.805 289.156 289.805 299.956 289.805C310.656 289.805 313.656 298.805 313.756 305.105C313.856 314.005 314.056 320.605 314.056 321.105C314.056 323.005 313.956 324.205 312.156 324.205C310.556 324.205 310.056 323.005 310.056 321.905C310.056 321.905 309.956 319.505 309.956 316.205H301.856C296.656 316.205 292.756 316.105 289.956 316.005C289.856 319.505 289.856 321.905 289.856 321.905C289.856 323.005 289.356 324.205 287.756 324.205C285.956 324.205 285.856 323.005 285.856 321.105C285.856 320.605 286.156 314.005 286.156 305.105ZM309.756 305.205C309.756 299.705 307.456 294.205 299.956 294.205C292.356 294.205 290.156 299.705 290.156 305.205C290.156 309.105 290.056 310.505 290.056 311.905C293.456 312.105 297.856 312.205 301.856 312.205C304.556 312.205 307.356 312.205 309.856 312.105C309.856 310.705 309.756 309.305 309.756 305.205Z" fill="#69261D"/>
<path d="M147.119 566.143C148.463 561.223 149.823 560.04 153.296 560.988L159.952 562.806C172.396 566.206 175.778 574.697 173.222 584.054C170.218 595.051 160.49 598.406 149.879 595.508C142.162 593.4 140.979 590.9 141.98 587.234C143.824 580.481 145.09 573.571 147.119 566.143ZM151.066 566.495L149.985 570.45C148.589 575.563 147.788 581.15 146.234 586.841C145.654 588.963 146.303 590.384 150.933 591.649C160.772 594.337 167.176 591.007 169.311 583.193C171.603 574.8 168.062 569.168 158.898 566.665L153.689 565.242C152.917 565.031 151.461 565.048 151.066 566.495ZM203.93 572.696C213.383 574.373 220.007 583.977 218.435 592.839C216.462 603.965 204.994 607.924 197.807 606.649C190.717 605.391 181.304 598.339 183.382 586.622C184.954 577.76 194.478 571.02 203.93 572.696ZM203.232 576.635C196.438 575.43 188.607 580.642 187.419 587.338C185.778 596.593 193.287 601.784 198.702 602.745C204.019 603.688 212.809 601.083 214.398 592.123C215.621 585.231 209.927 577.822 203.232 576.635ZM244.603 613.833C236.961 612.894 227.485 607.196 228.96 595.186C230.277 584.467 240.672 578.591 248.81 579.591C256.254 580.505 260.242 583.312 260.01 585.198C259.864 586.389 259.195 586.912 258.004 586.765C255.92 586.509 256.362 584.549 248.323 583.561C242.467 582.841 233.943 587.436 232.931 595.674C231.833 604.607 239.235 609.144 245.091 609.863C253.131 610.851 253.176 608.841 255.26 609.097C256.451 609.244 256.974 609.912 256.827 611.103C256.596 612.989 252.047 614.748 244.603 613.833ZM291.52 584.124C292.915 584.246 293.941 585.139 293.845 586.234C293.714 587.729 292.267 588.204 291.371 588.126C291.371 588.126 279.706 587.206 278.411 587.092C277.216 586.988 276.185 587.299 276.08 588.494C275.871 590.885 275.713 594.987 275.464 598.981L279.548 599.338C283.234 599.661 287.635 599.845 287.635 599.845C289.328 599.993 289.839 601.042 289.76 601.938C289.691 602.735 289.187 603.896 286.398 603.652C284.904 603.521 282.504 603.411 279.217 603.123C278.121 603.028 276.726 602.906 275.241 602.675L275.093 604.369C274.918 606.361 274.627 608.544 274.557 609.341C274.4 611.134 274.17 612.62 278.055 612.96C282.438 613.343 290.516 613.95 290.516 613.95C291.711 614.054 292.729 615.047 292.624 616.242C292.502 617.637 291.553 618.156 290.258 618.043L276.212 616.814C269.836 616.256 270.197 613.276 270.442 610.486C270.546 609.291 270.838 607.108 271.008 604.011C271.514 598.233 271.895 590.437 272.226 586.651C272.497 583.563 274.775 582.759 277.266 582.977C278.661 583.099 291.221 584.098 291.52 584.124ZM325.133 588.284C326.101 588.844 326.763 589.486 326.702 590.484C326.617 591.881 325.794 592.232 325.195 592.195C324.396 592.146 323.522 591.692 322.742 591.344C321.182 590.648 319.709 590.157 317.114 589.998C313.221 589.761 309.143 590.914 308.917 594.607C308.729 597.702 312.841 599.255 317.012 601.514C322.249 604.338 327.798 606.981 327.463 612.471C326.957 620.756 319.054 620.574 314.861 620.318C312.067 620.147 308.347 618.717 306.212 617.585C305.144 617.019 304.101 616.054 304.168 614.956C304.254 613.558 304.983 613.102 305.781 613.151C306.58 613.199 307.154 613.635 308.122 614.195C309.864 615.203 312.31 616.154 315.105 616.325C317.9 616.496 323.208 616.519 323.471 612.227C323.653 609.233 319.377 607.068 315.195 605.009C309.839 602.478 304.559 600.352 304.925 594.364C305.285 588.475 312.167 585.689 317.357 586.006C320.352 586.189 323.298 587.17 325.133 588.284ZM389.445 621.389C389.434 621.889 389.109 622.982 387.509 622.945C386.31 622.918 385.828 622.106 385.26 620.693C385.26 620.693 384.686 619.579 383.08 615.442C382.575 615.63 381.873 615.714 380.974 615.694C379.474 615.659 373.973 615.633 370.674 615.558C368.974 615.519 364.878 615.325 362.378 615.268C360.587 619.228 360.062 620.316 360.062 620.316C359.43 621.702 358.812 622.488 357.613 622.461C356.013 622.424 355.738 621.317 355.75 620.818C355.768 620.018 356.184 619.327 356.814 618.041L366.926 595.767C368.613 592.004 370.999 588.258 373.298 588.311C375.598 588.363 377.81 592.215 379.323 596.051L388.51 618.567C389.08 619.88 389.464 620.589 389.445 621.389ZM370.488 597.449L364.065 611.505C366.262 611.656 368.961 611.718 370.761 611.759C374.16 611.837 380.561 611.883 381.563 611.806L375.787 597.57C374.747 594.946 373.907 592.326 373.207 592.31C372.507 592.294 371.648 594.875 370.488 597.449ZM404.951 612.625L405.166 621.025C405.169 622.525 404.17 623.327 403.07 623.329C401.77 623.331 401.168 622.232 401.166 621.032C401.166 621.032 400.946 609.632 400.938 605.132C400.93 600.232 401.116 592.532 401.116 592.532C401.112 589.932 402.61 589.129 405.01 589.125L408.71 589.119C415.31 589.107 426.913 590.287 426.931 601.087C426.943 607.587 423.148 610.594 418.45 611.902L419.352 612.7C422.256 615.295 423.663 619.393 426.063 619.389L427.563 619.386C428.263 619.385 429.264 620.083 429.266 621.283C429.269 622.483 428.07 623.285 426.07 623.289C421.27 623.297 418.261 617.902 415.955 614.806C414.953 613.408 414.352 612.709 412.652 612.712C411.752 612.714 410.852 612.815 410.052 612.817C408.452 612.819 406.852 612.722 405.551 612.624L404.951 612.625ZM404.938 605.225L404.944 608.625L405.644 608.624C406.845 608.722 408.545 608.719 410.045 608.717C415.845 608.706 422.943 607.794 422.931 601.094C422.919 593.894 413.617 593.11 408.517 593.119L406.817 593.122C405.717 593.124 405.218 593.325 405.12 594.325C405.12 594.325 404.933 602.125 404.938 605.225ZM449.401 588.603C454.699 588.468 461.587 587.893 461.587 587.893C463.286 587.85 463.909 588.735 463.932 589.635C463.952 590.434 463.685 591.741 461.286 591.802C459.287 591.853 455.895 592.239 451.899 592.441L452.026 597.439C452.262 606.736 453.071 618.92 453.112 620.519C453.148 621.919 452.371 622.839 451.371 622.864C449.972 622.9 449.149 622.02 449.113 620.621C449.098 620.021 448.551 606.33 448.13 597.638C447.964 595.042 447.921 593.342 447.9 592.542C443.802 592.646 440.495 592.43 438.596 592.478C436.197 592.539 435.864 591.247 435.843 590.448C435.82 589.548 436.395 588.533 438.094 588.49C438.094 588.49 444.402 588.73 449.401 588.603ZM494.112 586.816C495.51 586.747 496.648 587.492 496.702 588.591C496.775 590.089 495.406 590.757 494.508 590.801C494.508 590.801 482.827 591.475 481.528 591.539C480.33 591.598 479.35 592.046 479.409 593.245C479.527 595.642 479.928 599.727 480.224 603.717L484.319 603.516C488.015 603.335 492.4 602.919 492.4 602.919C494.098 602.836 494.746 603.805 494.79 604.704C494.829 605.503 494.489 606.721 491.692 606.859C490.194 606.932 487.802 607.15 484.506 607.312C483.407 607.366 482.009 607.434 480.505 607.408L480.589 609.106C480.687 611.104 480.695 613.306 480.734 614.105C480.823 615.903 480.796 617.406 484.692 617.215C489.086 616.999 497.172 616.501 497.172 616.501C498.37 616.443 499.513 617.287 499.572 618.486C499.641 619.884 498.771 620.528 497.473 620.592L483.39 621.283C476.997 621.597 476.95 618.596 476.813 615.799C476.754 614.601 476.746 612.399 476.494 609.307C476.209 603.514 475.527 595.738 475.341 591.943C475.188 588.847 477.337 587.74 479.834 587.617C481.232 587.549 493.812 586.83 494.112 586.816ZM527.99 586.377C529.025 586.801 529.768 587.347 529.843 588.344C529.948 589.74 529.18 590.199 528.581 590.244C527.784 590.304 526.856 589.972 526.036 589.733C524.396 589.254 522.87 588.968 520.277 589.162C516.388 589.454 512.504 591.15 512.781 594.839C513.013 597.931 517.299 598.913 521.736 600.585C527.308 602.674 533.164 604.541 533.576 610.025C534.197 618.302 526.342 619.193 522.154 619.507C519.362 619.717 515.482 618.804 513.214 617.972C512.079 617.556 510.915 616.741 510.833 615.644C510.728 614.248 511.389 613.697 512.186 613.637C512.984 613.577 513.612 613.931 514.647 614.354C516.509 615.117 519.062 615.728 521.854 615.518C524.646 615.309 529.909 614.613 529.587 610.325C529.363 607.333 524.833 605.768 520.41 604.295C514.761 602.513 509.241 601.122 508.792 595.139C508.351 589.255 514.792 585.563 519.978 585.174C522.969 584.949 526.021 585.522 527.99 586.377ZM576.785 612.525C576.837 613.022 576.656 614.148 575.065 614.317C573.871 614.444 573.289 613.701 572.545 612.373C572.545 612.373 571.832 611.342 569.707 607.445C569.231 607.697 568.546 607.871 567.651 607.966C566.159 608.125 560.701 608.806 557.419 609.156C555.729 609.335 551.641 609.67 549.155 609.935C547.888 614.092 547.507 615.239 547.507 615.239C547.059 616.694 546.547 617.553 545.354 617.68C543.763 617.85 543.348 616.788 543.295 616.29C543.21 615.495 543.534 614.757 543.993 613.4L551.158 590.011C552.347 586.063 554.231 582.041 556.519 581.797C558.806 581.554 561.495 585.089 563.488 588.698L575.494 609.846C576.228 611.076 576.7 611.729 576.785 612.525ZM554.907 591.221L550.344 605.987C552.542 605.853 555.227 605.567 557.017 605.377C560.398 605.017 566.751 604.24 567.735 604.035L560.177 590.66C558.808 588.191 557.638 585.701 556.942 585.775C556.246 585.849 555.726 588.519 554.907 591.221ZM617.521 606.011C617.747 607.494 617.191 608.49 615.906 608.686C614.917 608.836 614.363 608.516 613.778 607.999C612.609 606.963 611.28 605.547 609.655 604.177C604.308 599.631 593.752 590.114 588.345 585.173L588.496 586.161C590.096 595.325 592.482 608.314 592.723 609.895C592.934 611.279 592.279 612.29 591.291 612.44C589.907 612.652 588.98 611.883 588.769 610.499C588.679 609.905 586.066 595.434 584.656 586.848C584.089 583.799 583.841 581.51 583.796 581.214C583.57 579.731 584.126 578.735 585.411 578.539C586.202 578.419 586.742 578.64 587.114 579.089C589.186 581.403 605.818 596.265 612.159 601.367L612.972 602.052L612.821 601.064C611.221 591.9 608.835 578.911 608.594 577.33C608.383 575.946 609.038 574.935 610.026 574.785C611.41 574.573 612.337 575.342 612.548 576.726C612.639 577.32 615.251 591.791 616.662 600.377C617.228 603.426 617.476 605.715 617.521 606.011ZM662.166 597.457C662.275 597.945 662.22 599.084 660.658 599.431C659.487 599.691 658.825 599.019 657.936 597.782C657.936 597.782 657.112 596.838 654.563 593.204C654.119 593.508 653.457 593.757 652.578 593.952C651.114 594.278 645.767 595.568 642.545 596.283C640.885 596.652 636.861 597.443 634.421 597.985C633.628 602.259 633.379 603.441 633.379 603.441C633.097 604.938 632.684 605.849 631.513 606.109C629.951 606.456 629.42 605.447 629.311 604.959C629.138 604.178 629.376 603.408 629.68 602.009L634.174 577.963C634.912 573.906 636.333 569.698 638.578 569.199C640.824 568.7 643.893 571.911 646.279 575.274L660.583 594.94C661.451 596.079 661.993 596.676 662.166 597.457ZM638.035 578.744L635.159 593.929C637.328 593.549 639.964 592.964 641.721 592.574C645.04 591.837 651.266 590.351 652.221 590.037L643.209 577.595C641.571 575.295 640.129 572.952 639.446 573.104C638.762 573.256 638.545 575.967 638.035 578.744ZM673.286 564.897L671.093 565.589L672.357 569.594L679.483 590.52L681.867 589.768C683.584 589.226 684.361 590.029 684.572 590.697C684.873 591.65 684.822 592.82 682.247 593.632L675.19 595.859C672.615 596.671 671.903 595.742 671.602 594.789C671.392 594.121 671.854 592.927 673.284 592.476L675.668 591.723L668.667 570.863C668.066 568.956 667.579 567.746 667.278 566.793L664.703 567.605C662.987 568.146 662.209 567.343 661.998 566.676C661.697 565.722 661.718 564.457 664.323 563.74L667.786 562.752L671.38 561.514C673.925 560.606 674.667 561.63 674.968 562.584C675.179 563.251 674.717 564.446 673.286 564.897ZM699.667 550.487C700.785 550.484 701.68 550.705 702.13 551.598C702.759 552.849 702.224 553.566 701.688 553.836C700.974 554.195 699.99 554.243 699.14 554.334C697.442 554.518 695.922 554.835 693.599 556.004C690.116 557.757 687.172 560.806 688.836 564.111C690.23 566.88 694.566 566.153 699.306 566.006C705.253 565.811 711.379 565.303 713.851 570.216C717.583 577.63 710.661 581.45 706.91 583.338C704.409 584.597 700.475 585.233 698.06 585.329C696.853 585.377 695.466 585.068 694.971 584.085C694.342 582.835 694.742 582.073 695.457 581.714C696.171 581.354 696.887 581.442 698.005 581.439C700.018 581.433 702.61 581.024 705.111 579.765C707.612 578.506 712.212 575.855 710.278 572.014C708.93 569.335 704.145 569.616 699.495 569.941C693.593 570.449 687.96 571.269 685.263 565.909C682.61 560.639 687.156 554.769 691.801 552.431C694.481 551.082 697.52 550.448 699.667 550.487Z" fill="#69261D"/>
<g filter="url(#filter1_d_22_7)">
<path fill-rule="evenodd" clip-rule="evenodd" d="M268.025 350.653C257.053 356.432 248.566 365.018 237.738 381.29L234.339 386.397L233.694 380.461C232.237 367.045 227.133 358.443 217.623 353.375C209.601 349.098 197.562 347.919 187.424 350.416C178.42 352.633 169.193 357.864 161.042 365.367C156.11 369.908 148.43 378.926 143.639 385.803C142.973 386.759 143.102 384.426 144.08 377.801C145.5 368.186 145.64 360.381 144.441 357.584C142.856 353.885 138.909 352.535 133.446 353.822C131.825 354.204 124.049 356.594 116.165 359.133C95.066 365.928 83.7121 368.133 73.7843 367.364L68.9889 366.992L67.9848 368.526C66.7337 370.436 66.7144 374.721 67.9483 376.604C68.5901 377.584 70.1317 378.365 73.4817 379.41C84.9168 382.975 87.8221 390.617 84.9588 409.599C80.9129 436.419 73.4358 469.572 63.444 504.996C59.2202 519.972 58.7839 522.293 59.0694 528.267C59.2672 532.402 59.587 533.761 61.0717 536.777C63.0369 540.768 66.9756 544.937 70.9906 547.275C85.4117 555.673 113.365 554.787 131.489 545.358C138.534 541.692 139.657 538.673 135.411 534.81C130.289 530.153 128.611 524.105 128.158 508.671C127.511 486.688 131.341 451.068 136.627 429.909C140.958 412.573 147.487 400.423 155.926 393.995C162.908 388.679 171.819 389.076 175.206 394.856C179.186 401.648 178.154 412.761 170.195 448.815C162.769 482.452 161.369 491.385 161.882 501.84C162.393 512.258 164.556 518.145 170.097 524.191C174.415 528.904 180.981 532.287 189.047 533.955C195.9 535.373 206.367 535.112 213.35 533.35C221.047 531.407 231.824 525.21 233.906 521.529C235.347 518.981 234.568 516.549 231.845 515.091C230.031 514.12 227.515 508.014 226.614 502.392C223.136 480.7 227.411 437.475 235.225 415.32C239.64 402.804 245.848 394.963 253.094 392.752C259.177 390.895 264.856 394.126 267.003 400.664C267.848 403.238 268.029 405.483 268.014 413.189C267.994 423.212 267.469 427.563 264.121 445.501C258.348 476.433 256.893 488.388 257.433 500.476C258.108 515.585 261.857 526.808 269.399 536.298C276.008 544.616 285.859 550.06 298.411 552.33C305.077 553.536 321.713 553.154 328.237 551.644C337.693 549.456 344.76 546.385 352.952 540.907C368.93 530.219 377.627 513.729 370.465 507.702C366.714 504.545 363.189 505.214 354.742 510.683C349.094 514.339 343.403 516.753 340.431 516.753C337.633 516.753 333.307 514.955 331.009 512.837C325.402 507.669 323.662 497.651 325.454 480.851C327.646 460.303 338.287 422.618 346.994 404.569C347.762 402.978 348.288 401.572 348.163 401.447C348.038 401.322 347.679 401.698 347.366 402.283C346.637 403.646 339.774 408.381 335.185 410.689C323.822 416.403 307.986 416.86 296.217 411.815C284.796 406.92 275.217 397.134 270.792 385.843C266.453 374.771 267.034 360.628 272.25 350.361C272.828 349.222 273.111 348.296 272.876 348.305C272.643 348.314 270.459 349.371 268.025 350.653ZM243.487 529.362C240.077 531.19 238.687 535.505 240.425 538.865C242.791 543.442 251.206 543.235 253.163 538.552C255.961 531.853 249.783 525.985 243.487 529.362ZM227.65 544.338C225.992 545.038 224.121 547.598 224.121 549.167C224.121 550.905 225.495 553.534 226.632 553.97C230.364 555.402 234.616 552.829 234.616 549.139C234.616 545.608 230.827 542.998 227.65 544.338Z" fill="#E13E53"/>
</g>
<path fill-rule="evenodd" clip-rule="evenodd" d="M275.615 351.883C272.968 358.083 272.206 361.843 272.204 368.726C272.201 376.233 273.469 381.459 276.887 388.026C285.629 404.822 305.141 414.133 323.908 410.464C332.496 408.784 338.388 405.924 343.379 401.012C345.076 399.343 346.464 397.761 346.464 397.498C346.464 397.234 345.035 397.606 343.288 398.325C341.541 399.043 339.646 399.637 339.077 399.644C338.507 399.651 336.844 398.42 335.379 396.909L332.716 394.161L330.346 394.997C327.373 396.046 324.662 396.168 323.616 395.299C323.173 394.932 322.115 393.034 321.264 391.082L319.719 387.534L316.471 387.58C314.685 387.605 313.024 387.412 312.782 387.151C312.539 386.89 311.783 385.124 311.102 383.225L309.862 379.773L306.484 379.764C304.626 379.759 302.832 379.573 302.498 379.35C301.146 378.447 300.62 376.292 300.62 371.654V366.777L298.313 365.777C297.044 365.228 294.9 364.017 293.548 363.087L291.09 361.396L291.469 356.729C291.769 353.039 291.675 351.798 291.024 350.804L290.2 349.546L286.987 351.115C282.466 353.322 281.076 353.215 279.211 350.52C278.379 349.316 277.573 348.325 277.422 348.316C277.27 348.308 276.457 349.913 275.615 351.883ZM286.914 360.316C288.628 362.063 288.453 365.775 286.562 367.817C284.556 369.981 281.335 369.874 279.404 367.579C277.834 365.712 277.617 364.039 278.651 361.769C279.949 358.921 284.722 358.082 286.914 360.316ZM288.27 377.265C288.903 377.709 289.724 378.804 290.095 379.699C290.752 381.287 290.805 381.305 292.273 380.463C294.134 379.395 296.336 379.857 298.182 381.703C300.137 383.658 300.074 387.539 298.06 389.122C295.933 390.796 293.161 390.626 291.241 388.706C289.708 387.174 289.655 387.163 288.383 388.141C286.32 389.729 283.164 389.466 281.245 387.548C279.904 386.207 279.631 385.479 279.631 383.252C279.631 380.125 280.688 378.326 283.154 377.252C285.408 376.271 286.856 376.275 288.27 377.265ZM304.111 394.637C306.692 397.168 306.06 402.555 303.096 403.299C298.564 404.436 294.061 399.297 296.597 395.881C298.771 392.952 301.869 392.439 304.111 394.637ZM319.843 396.563C325.271 399.37 324.744 405.343 319 406.114C316.878 406.398 316.494 406.252 314.72 404.478C312.2 401.958 312.093 399.698 314.386 397.405C316.171 395.62 317.596 395.401 319.843 396.563Z" fill="#69261D"/>
<path d="M136.627 430.222C138.048 420.607 134 413.805 124 414.66C114 415.514 114.5 442.805 99 422.805C83.5 402.805 84.9588 438.305 84.9588 409.912C80.9129 436.732 73.4358 469.885 63.444 505.309C59.2202 520.285 58.7839 522.606 59.0694 528.58C59.2672 532.715 59.587 534.074 61.0717 537.09C63.0369 541.081 66.9756 545.25 70.9906 547.588C85.4117 555.986 113.365 555.1 131.489 545.671C138.534 542.005 139.657 538.986 135.411 535.124C130.289 530.466 128.611 524.418 128.158 508.985C127.511 487.001 131.341 451.381 136.627 430.222Z" fill="#69261D"/>
<defs>
<filter id="filter0_d_22_7" x="357.6" y="267.147" width="479.26" height="305.477" filterUnits="userSpaceOnUse" color-interpolation-filters="sRGB">
<feFlood flood-opacity="0" result="BackgroundImageFix"/>
<feColorMatrix in="SourceAlpha" type="matrix" values="0 0 0 0 0 0 0 0 0 0 0 0 0 0 0 0 0 0 127 0" result="hardAlpha"/>
<feOffset dy="13"/>
<feGaussianBlur stdDeviation="9.7"/>
<feComposite in2="hardAlpha" operator="out"/>
<feColorMatrix type="matrix" values="0 0 0 0 0 0 0 0 0 0 0 0 0 0 0 0 0 0 0.7 0"/>
<feBlend mode="normal" in2="BackgroundImageFix" result="effect1_dropShadow_22_7"/>
<feBlend mode="normal" in="SourceGraphic" in2="effect1_dropShadow_22_7" result="shape"/>
</filter>
<filter id="filter1_d_22_7" x="39.6" y="341.905" width="352.8" height="244.867" filterUnits="userSpaceOnUse" color-interpolation-filters="sRGB">
<feFlood flood-opacity="0" result="BackgroundImageFix"/>
<feColorMatrix in="SourceAlpha" type="matrix" values="0 0 0 0 0 0 0 0 0 0 0 0 0 0 0 0 0 0 127 0" result="hardAlpha"/>
<feOffset dy="13"/>
<feGaussianBlur stdDeviation="9.7"/>
<feComposite in2="hardAlpha" operator="out"/>
<feColorMatrix type="matrix" values="0 0 0 0 0 0 0 0 0 0 0 0 0 0 0 0 0 0 0.7 0"/>
<feBlend mode="normal" in2="BackgroundImageFix" result="effect1_dropShadow_22_7"/>
<feBlend mode="normal" in="SourceGraphic" in2="effect1_dropShadow_22_7" result="shape"/>
</filter>
</defs>
</svg>
